<svg xmlns="http://www.w3.org/2000/svg" width="28.439" height="36.728" viewBox="0 0 28.439 36.728">
  <g id="verde-ultra" transform="translate(2 2)">
    <g id="Component_108_4" data-name="Component 108 – 4">
      <g id="Path_1021" data-name="Path 1021" transform="translate(-101.961 -7.534)" fill="#13a350">
        <path d="M 114.1803970336914 40.99424362182617 L 113.5655364990234 40.51487731933594 C 113.4373321533203 40.4149169921875 110.3899917602539 38.02402496337891 107.3016128540039 34.30770492553711 C 105.4768829345703 32.11196517944336 104.0200119018555 29.90838623046875 102.9714584350586 27.75816535949707 C 101.6374206542969 25.02248573303223 100.9610061645508 22.36021614074707 100.9610061645508 19.8453254699707 C 100.9610061645508 16.29116630554199 102.3351211547852 12.94934558868408 104.8302230834961 10.43546581268311 C 107.3273162841797 7.919575691223145 110.64794921875 6.534005641937256 114.1803970336914 6.534005641937256 C 117.7128524780273 6.534005641937256 121.0334777832031 7.9195556640625 123.5305862426758 10.43542575836182 C 126.0257110595703 12.94928550720215 127.3998336791992 16.29109573364258 127.3998336791992 19.84524536132812 C 127.3998336791992 22.36015510559082 126.7234115600586 25.02243614196777 125.3893661499023 27.75812530517578 C 124.3408203125 29.90835571289062 122.8839416503906 32.11195373535156 121.059211730957 34.30769729614258 C 117.970817565918 38.02402496337891 114.923469543457 40.4149169921875 114.7952575683594 40.51487731933594 L 114.1803970336914 40.99424362182617 Z" stroke="none"/>
        <path d="M 114.1803970336914 7.53399658203125 C 107.4317779541016 7.53399658203125 101.9610061645508 13.04600524902344 101.9610061645508 19.8453254699707 C 101.9610061645508 30.19942474365234 114.1803970336914 39.72622680664062 114.1803970336914 39.72622680664062 C 114.1803970336914 39.72622680664062 126.3998336791992 30.19942474365234 126.3998336791992 19.84524536132812 C 126.3998336791992 13.04592514038086 120.9290008544922 7.53399658203125 114.1803970336914 7.53399658203125 M 114.1803970336914 5.53399658203125 C 117.9813766479492 5.53399658203125 121.5540618896484 7.024505615234375 124.2403411865234 9.730964660644531 C 126.9226303100586 12.43340682983398 128.3998413085938 16.0253963470459 128.3998413085938 19.84524536132812 C 128.3998413085938 22.51332473754883 127.6893692016602 25.32307624816895 126.2881927490234 28.19643592834473 C 125.2046279907227 30.41847610473633 123.7041015625 32.68963623046875 121.8283004760742 34.94683456420898 C 118.6716461181641 38.74529647827148 115.5418090820312 41.20082473754883 115.4101104736328 41.30350494384766 L 114.1803970336914 42.26224517822266 L 112.95068359375 41.30350494384766 C 112.8189926147461 41.20082473754883 109.6891632080078 38.74528503417969 106.5325164794922 34.94684600830078 C 104.6567306518555 32.68965530395508 103.1561965942383 30.41849517822266 102.072639465332 28.19646644592285 C 100.6714630126953 25.32311630249023 99.96101379394531 22.51338577270508 99.96101379394531 19.8453254699707 C 99.96101379394531 16.02547645568848 101.4382019042969 12.43347549438477 104.1204681396484 9.731014251708984 C 106.8067321777344 7.024524688720703 110.3794174194336 5.53399658203125 114.1803970336914 5.53399658203125 Z" stroke="none" fill="#fff"/>
      </g>
      <ellipse id="Ellipse_899" data-name="Ellipse 899" cx="9.5" cy="9.5" rx="9.5" ry="9.5" transform="translate(2.719 2.698)" fill="#fff"/>
    </g>
    <g id="Component_112_2" data-name="Component 112 – 2" transform="translate(5 7.187)">
      <g id="Component_109_16" data-name="Component 109 – 16" transform="translate(7.285)">
        <path id="Path_2051" data-name="Path 2051" d="M214.477,141.785c0-.021,0-.043,0-.065a.679.679,0,0,0,0-.078l-.005-.031,0-.03a.69.69,0,0,0-.019-.075.257.257,0,0,0-.02-.061c-.009-.021-.019-.043-.03-.063s-.022-.039-.034-.059a.447.447,0,0,0-.041-.056l-.042-.049a.865.865,0,0,0-.1-.087c-.019-.012-.038-.024-.059-.035s-.043-.023-.065-.033a.192.192,0,0,0-.029-.014l-.032-.009a.6.6,0,0,0-.073-.019c-.022,0-.044-.008-.065-.011a.565.565,0,0,0-.071,0,.446.446,0,0,0-.073,0l-.034.005-.768.061,1.141-3.039a.708.708,0,0,0-1.325-.5l-1.56,4.148c0,.011-.005.022-.008.032s-.014.048-.019.072a.4.4,0,0,0-.011.069c0,.022,0,.043,0,.065s0,.052,0,.079l0,.03.005.03a.679.679,0,0,0,.018.075.627.627,0,0,0,.021.061c.009.021.019.043.03.063s.022.04.033.058a.545.545,0,0,0,.042.056.311.311,0,0,0,.043.05c.015.012.034.032.052.048s.034.028.052.041.038.024.058.035.041.023.062.033a.244.244,0,0,1,.028.014c.01,0,.018,0,.026.006a.686.686,0,0,0,.117.028l.045.007a.687.687,0,0,0,.157,0h0l.768-.061-1.133,3.037a.708.708,0,0,0,1.325.5h0l1.559-4.153c.005-.011.005-.022.009-.032s.014-.048.019-.073.008-.045.011-.068" transform="translate(-211.124 -137.08)" fill="#13a350" fill-rule="evenodd"/>
      </g>
      <g id="Component_109_19" data-name="Component 109 – 19" transform="translate(10.928)">
        <path id="Path_2051-2" data-name="Path 2051" d="M214.477,141.785c0-.021,0-.043,0-.065a.679.679,0,0,0,0-.078l-.005-.031,0-.03a.69.69,0,0,0-.019-.075.257.257,0,0,0-.02-.061c-.009-.021-.019-.043-.03-.063s-.022-.039-.034-.059a.447.447,0,0,0-.041-.056l-.042-.049a.865.865,0,0,0-.1-.087c-.019-.012-.038-.024-.059-.035s-.043-.023-.065-.033a.192.192,0,0,0-.029-.014l-.032-.009a.6.6,0,0,0-.073-.019c-.022,0-.044-.008-.065-.011a.565.565,0,0,0-.071,0,.446.446,0,0,0-.073,0l-.034.005-.768.061,1.141-3.039a.708.708,0,0,0-1.325-.5l-1.56,4.148c0,.011-.005.022-.008.032s-.014.048-.019.072a.4.4,0,0,0-.011.069c0,.022,0,.043,0,.065s0,.052,0,.079l0,.03.005.03a.679.679,0,0,0,.018.075.627.627,0,0,0,.021.061c.009.021.019.043.03.063s.022.04.033.058a.545.545,0,0,0,.042.056.311.311,0,0,0,.043.05c.015.012.034.032.052.048s.034.028.052.041.038.024.058.035.041.023.062.033a.244.244,0,0,1,.028.014c.01,0,.018,0,.026.006a.686.686,0,0,0,.117.028l.045.007a.687.687,0,0,0,.157,0h0l.768-.061-1.133,3.037a.708.708,0,0,0,1.325.5h0l1.559-4.153c.005-.011.005-.022.009-.032s.014-.048.019-.073.008-.045.011-.068" transform="translate(-211.124 -137.08)" fill="#13a350" fill-rule="evenodd"/>
      </g>
      <g id="Component_109_17" data-name="Component 109 – 17" transform="translate(3.643)">
        <path id="Path_2051-3" data-name="Path 2051" d="M214.477,141.785c0-.021,0-.043,0-.065a.679.679,0,0,0,0-.078l-.005-.031,0-.03a.69.69,0,0,0-.019-.075.257.257,0,0,0-.02-.061c-.009-.021-.019-.043-.03-.063s-.022-.039-.034-.059a.447.447,0,0,0-.041-.056l-.042-.049a.865.865,0,0,0-.1-.087c-.019-.012-.038-.024-.059-.035s-.043-.023-.065-.033a.192.192,0,0,0-.029-.014l-.032-.009a.6.6,0,0,0-.073-.019c-.022,0-.044-.008-.065-.011a.565.565,0,0,0-.071,0,.446.446,0,0,0-.073,0l-.034.005-.768.061,1.141-3.039a.708.708,0,0,0-1.325-.5l-1.56,4.148c0,.011-.005.022-.008.032s-.014.048-.019.072a.4.4,0,0,0-.011.069c0,.022,0,.043,0,.065s0,.052,0,.079l0,.03.005.03a.679.679,0,0,0,.018.075.627.627,0,0,0,.021.061c.009.021.019.043.03.063s.022.04.033.058a.545.545,0,0,0,.042.056.311.311,0,0,0,.043.05c.015.012.034.032.052.048s.034.028.052.041.038.024.058.035.041.023.062.033a.244.244,0,0,1,.028.014c.01,0,.018,0,.026.006a.686.686,0,0,0,.117.028l.045.007a.687.687,0,0,0,.157,0h0l.768-.061-1.133,3.037a.708.708,0,0,0,1.325.5h0l1.559-4.153c.005-.011.005-.022.009-.032s.014-.048.019-.073.008-.045.011-.068" transform="translate(-211.124 -137.08)" fill="#13a350" fill-rule="evenodd"/>
      </g>
      <g id="Component_109_18" data-name="Component 109 – 18">
        <path id="Path_2051-4" data-name="Path 2051" d="M214.477,141.785c0-.021,0-.043,0-.065a.679.679,0,0,0,0-.078l-.005-.031,0-.03a.69.69,0,0,0-.019-.075.257.257,0,0,0-.02-.061c-.009-.021-.019-.043-.03-.063s-.022-.039-.034-.059a.447.447,0,0,0-.041-.056l-.042-.049a.865.865,0,0,0-.1-.087c-.019-.012-.038-.024-.059-.035s-.043-.023-.065-.033a.192.192,0,0,0-.029-.014l-.032-.009a.6.6,0,0,0-.073-.019c-.022,0-.044-.008-.065-.011a.565.565,0,0,0-.071,0,.446.446,0,0,0-.073,0l-.034.005-.768.061,1.141-3.039a.708.708,0,0,0-1.325-.5l-1.56,4.148c0,.011-.005.022-.008.032s-.014.048-.019.072a.4.4,0,0,0-.011.069c0,.022,0,.043,0,.065s0,.052,0,.079l0,.03.005.03a.679.679,0,0,0,.018.075.627.627,0,0,0,.021.061c.009.021.019.043.03.063s.022.04.033.058a.545.545,0,0,0,.042.056.311.311,0,0,0,.043.05c.015.012.034.032.052.048s.034.028.052.041.038.024.058.035.041.023.062.033a.244.244,0,0,1,.028.014c.01,0,.018,0,.026.006a.686.686,0,0,0,.117.028l.045.007a.687.687,0,0,0,.157,0h0l.768-.061-1.133,3.037a.708.708,0,0,0,1.325.5h0l1.559-4.153c.005-.011.005-.022.009-.032s.014-.048.019-.073.008-.045.011-.068" transform="translate(-211.124 -137.08)" fill="#13a350" fill-rule="evenodd"/>
      </g>
    </g>
  </g>
</svg>
