<svg id="Component_111_8" data-name="Component 111 – 8" xmlns="http://www.w3.org/2000/svg" width="7" height="9.488" viewBox="0 0 7 9.488">
  <g id="Component_109_7" data-name="Component 109 – 7" transform="translate(3.643)">
    <path id="Path_2051" data-name="Path 2051" d="M214.477,141.785c0-.021,0-.043,0-.065a.679.679,0,0,0,0-.078l-.005-.031,0-.03a.69.69,0,0,0-.019-.075.257.257,0,0,0-.02-.061c-.009-.021-.019-.043-.03-.063s-.022-.039-.034-.059a.447.447,0,0,0-.041-.056l-.042-.049a.865.865,0,0,0-.1-.087c-.019-.012-.038-.024-.059-.035s-.043-.023-.065-.033a.192.192,0,0,0-.029-.014l-.032-.009a.6.6,0,0,0-.073-.019c-.022,0-.044-.008-.065-.011a.565.565,0,0,0-.071,0,.446.446,0,0,0-.073,0l-.034.005-.768.061,1.141-3.039a.708.708,0,0,0-1.325-.5l-1.56,4.148c0,.011-.005.022-.008.032s-.014.048-.019.072a.4.4,0,0,0-.011.069c0,.022,0,.043,0,.065s0,.052,0,.079l0,.03.005.03a.679.679,0,0,0,.018.075.627.627,0,0,0,.021.061c.009.021.019.043.03.063s.022.04.033.058a.545.545,0,0,0,.042.056.311.311,0,0,0,.043.05c.015.012.034.032.052.048s.034.028.052.041.038.024.058.035.041.023.062.033a.244.244,0,0,1,.028.014c.01,0,.018,0,.026.006a.686.686,0,0,0,.117.028l.045.007a.687.687,0,0,0,.157,0h0l.768-.061-1.133,3.037a.708.708,0,0,0,1.325.5h0l1.559-4.153c.005-.011.005-.022.009-.032s.014-.048.019-.073.008-.045.011-.068" transform="translate(-211.124 -137.08)" fill="#030504" fill-rule="evenodd"/>
  </g>
  <g id="Component_109_9" data-name="Component 109 – 9">
    <path id="Path_2051-2" data-name="Path 2051" d="M214.477,141.785c0-.021,0-.043,0-.065a.679.679,0,0,0,0-.078l-.005-.031,0-.03a.69.69,0,0,0-.019-.075.257.257,0,0,0-.02-.061c-.009-.021-.019-.043-.03-.063s-.022-.039-.034-.059a.447.447,0,0,0-.041-.056l-.042-.049a.865.865,0,0,0-.1-.087c-.019-.012-.038-.024-.059-.035s-.043-.023-.065-.033a.192.192,0,0,0-.029-.014l-.032-.009a.6.6,0,0,0-.073-.019c-.022,0-.044-.008-.065-.011a.565.565,0,0,0-.071,0,.446.446,0,0,0-.073,0l-.034.005-.768.061,1.141-3.039a.708.708,0,0,0-1.325-.5l-1.56,4.148c0,.011-.005.022-.008.032s-.014.048-.019.072a.4.4,0,0,0-.011.069c0,.022,0,.043,0,.065s0,.052,0,.079l0,.03.005.03a.679.679,0,0,0,.018.075.627.627,0,0,0,.021.061c.009.021.019.043.03.063s.022.04.033.058a.545.545,0,0,0,.042.056.311.311,0,0,0,.043.05c.015.012.034.032.052.048s.034.028.052.041.038.024.058.035.041.023.062.033a.244.244,0,0,1,.028.014c.01,0,.018,0,.026.006a.686.686,0,0,0,.117.028l.045.007a.687.687,0,0,0,.157,0h0l.768-.061-1.133,3.037a.708.708,0,0,0,1.325.5h0l1.559-4.153c.005-.011.005-.022.009-.032s.014-.048.019-.073.008-.045.011-.068" transform="translate(-211.124 -137.08)" fill="#030504" fill-rule="evenodd"/>
  </g>
</svg>
