<svg xmlns="http://www.w3.org/2000/svg" width="28.214" height="23.373" viewBox="0 0 28.214 23.373">
  <g id="Group_1474" data-name="Group 1474" transform="translate(0.604 0.5)">
    <circle id="Ellipse_725" data-name="Ellipse 725" cx="2.215" cy="2.215" r="2.215" transform="translate(4.182 8.277)" fill="#1f3741" stroke="#1f3741" stroke-miterlimit="10" stroke-width="1"/>
    <circle id="Ellipse_726" data-name="Ellipse 726" cx="2.215" cy="2.215" r="2.215" transform="translate(11.299 8.277)" fill="#1f3741" stroke="#1f3741" stroke-miterlimit="10" stroke-width="1"/>
    <circle id="Ellipse_727" data-name="Ellipse 727" cx="2.215" cy="2.215" r="2.215" transform="translate(18.501 8.277)" fill="#1f3741" stroke="#1f3741" stroke-miterlimit="10" stroke-width="1"/>
    <circle id="Ellipse_728" data-name="Ellipse 728" cx="1.436" cy="1.436" r="1.436" transform="translate(15.676 3.914)" fill="none" stroke="#1f3741" stroke-miterlimit="10" stroke-width="1"/>
    <circle id="Ellipse_729" data-name="Ellipse 729" cx="1.436" cy="1.436" r="1.436" transform="translate(8.325 3.914)" fill="none" stroke="#1f3741" stroke-miterlimit="10" stroke-width="1"/>
    <circle id="Ellipse_730" data-name="Ellipse 730" cx="2.215" cy="2.215" r="2.215" transform="translate(14.897 14.199)" fill="#1f3741" stroke="#1f3741" stroke-miterlimit="10" stroke-width="1"/>
    <circle id="Ellipse_731" data-name="Ellipse 731" cx="2.215" cy="2.215" r="2.215" transform="translate(7.546 14.199)" fill="#1f3741" stroke="#1f3741" stroke-miterlimit="10" stroke-width="1"/>
    <path id="Path_928" data-name="Path 928" d="M295.624,273.893c-.419.517-4.844,6.185-2.572,12.928a13.909,13.909,0,0,0,13.449,9.435,13.64,13.64,0,0,0,12.487-9.832c1.889-6.758-2.814-12.085-3.222-12.531Z" transform="translate(-292.407 -273.893)" fill="none" stroke="#1f3741" stroke-miterlimit="10" stroke-width="1"/>
  </g>
</svg>
