<?xml version="1.0" encoding="utf-8"?>
<!-- Generator: Adobe Illustrator 25.2.0, SVG Export Plug-In . SVG Version: 6.00 Build 0)  -->
<svg version="1.1" id="Layer_1" xmlns="http://www.w3.org/2000/svg" xmlns:xlink="http://www.w3.org/1999/xlink" x="0px" y="0px"
	 viewBox="0 0 21.2 25.4" style="enable-background:new 0 0 21.2 25.4;" xml:space="preserve">
<style type="text/css">
	.st0{fill:#1F3741;stroke:#1F3741;stroke-miterlimit:10;}
	.st1{fill:none;stroke:#1F3741;stroke-miterlimit:10;}
</style>
<circle id="Ellipse_710" class="st0" cx="5.3" cy="8.3" r="1.6"/>
<circle id="Ellipse_711" class="st0" cx="10.6" cy="8.3" r="1.6"/>
<circle id="Ellipse_712" class="st0" cx="16" cy="8.3" r="1.6"/>
<circle id="Ellipse_713" class="st1" cx="13.3" cy="4.5" r="1.1"/>
<circle id="Ellipse_714" class="st1" cx="7.8" cy="4.5" r="1.1"/>
<circle id="Ellipse_715" class="st0" cx="13.3" cy="12.7" r="1.6"/>
<circle id="Ellipse_716" class="st0" cx="7.8" cy="12.7" r="1.6"/>
<path id="Path_926" class="st1" d="M3,0.5c-0.3,0.4-3.6,4.6-1.9,9.6c1.4,4.3,5.5,7.1,10,7c4.3-0.2,8.1-3.1,9.3-7.3
	c1.4-5-2.1-9-2.4-9.3H3z"/>
<circle id="Ellipse_717" class="st0" cx="4.9" cy="21.3" r="1.6"/>
<path id="Path_927" class="st1" d="M3.2,17.6c-2,0.8-2.9,3-2.1,4.9c0.4,1.1,1.4,2,2.6,2.3H18c2-0.7,3.1-2.8,2.4-4.8
	c-0.4-1.1-1.3-2-2.4-2.4H3.2z"/>
<circle id="Ellipse_718" class="st0" cx="16.4" cy="21.3" r="1.6"/>
</svg>
